<svg xmlns="http://www.w3.org/2000/svg" viewBox="0 0 16 16" id="Square-Xmark--Streamline-Font-Awesome" height="16" width="16"><desc>Square Xmark Streamline Icon: https://streamlinehq.com</desc><!--! Font Awesome Free 6.5.2 by @fontawesome - https://fontawesome.com License - https://fontawesome.com/license/free (Icons: CC BY 4.0, Fonts: SIL OFL 1.1, Code: MIT License) Copyright 2024 Fonticons, Inc.--><path d="M2.4 0.16C1.1645 0.16 0.16 1.1645 0.16 2.4v11.200000000000001c0 1.2355 1.0045 2.2399999999999998 2.2399999999999998 2.2399999999999998h11.200000000000001c1.2355 0 2.2399999999999998 -1.0045 2.2399999999999998 -2.2399999999999998V2.4c0 -1.2355 -1.0045 -2.2399999999999998 -2.2399999999999998 -2.2399999999999998H2.4Zm2.765 5.004999999999999c0.32899999999999996 -0.32899999999999996 0.861 -0.32899999999999996 1.1864999999999999 0l1.645 1.645 1.645 -1.645c0.32899999999999996 -0.32899999999999996 0.861 -0.32899999999999996 1.1864999999999999 0s0.32899999999999996 0.861 0 1.1864999999999999l-1.645 1.645 1.645 1.645c0.32899999999999996 0.32899999999999996 0.32899999999999996 0.861 0 1.1864999999999999s-0.861 0.32899999999999996 -1.1864999999999999 0l-1.645 -1.645 -1.645 1.645c-0.32899999999999996 0.32899999999999996 -0.861 0.32899999999999996 -1.1864999999999999 0s-0.32899999999999996 -0.861 0 -1.1864999999999999l1.645 -1.645 -1.645 -1.645c-0.32899999999999996 -0.32899999999999996 -0.32899999999999996 -0.861 0 -1.1864999999999999Z" fill="#000000" stroke-width="0.0357"></path></svg>